<svg width="57" height="56" viewBox="0 0 57 56" fill="none" xmlns="http://www.w3.org/2000/svg">
<path d="M56.69 28C56.69 41.0256 47.7748 51.9904 35.7236 55.1152C33.4724 55.6976 31.1204 56 28.69 56C26.9652 56 25.2628 55.8432 23.6164 55.5296C10.5684 53.1552 0.690002 41.7312 0.690002 28C0.690002 12.544 13.2228 0 28.69 0C44.1572 0 56.69 12.544 56.69 28Z" fill="#F9EDF2"/>
<path d="M36.7988 15.8142V21.5374L31.4564 25.6254C30.6724 26.2302 29.586 26.2974 28.746 25.8158V15.8142C28.746 14.8734 29.5188 14.1006 30.4596 14.1006H35.074C36.0148 14.1006 36.7876 14.8734 36.7876 15.8142H36.7988Z" fill="#2D375E"/>
<path d="M31.6916 31.6734L36.7988 27.7534V41.1486C36.7988 42.0894 36.026 42.8622 35.0852 42.8622H30.4708C29.53 42.8622 28.7572 42.0894 28.7572 41.1486V31.707L28.858 31.7742C29.7316 32.3454 30.874 32.3118 31.7028 31.6622L31.6916 31.6734Z" fill="#2D375E"/>
<path d="M25.2964 19.1072V23.5872L22.7204 21.9072C21.8356 21.3248 20.6708 21.3808 19.8308 22.0416L17.2436 24.1024V19.1072C17.2436 18.1664 18.0164 17.3936 18.9572 17.3936H23.5716C24.5124 17.3936 25.2852 18.1664 25.2852 19.1072H25.2964Z" fill="#2D375E"/>
<path d="M23.0116 27.9775L25.2964 29.4671V41.1599C25.2964 42.1007 24.5236 42.8735 23.5828 42.8735H18.9684C18.0276 42.8735 17.2548 42.1007 17.2548 41.1599V30.4303L20.1444 28.1343C20.9732 27.4735 22.138 27.4175 23.034 27.9999L23.0116 27.9775Z" fill="#2D375E"/>
<path d="M25.2964 23.5877V29.4677L23.0116 27.9781C22.1156 27.4069 20.962 27.4517 20.122 28.1125L17.2324 30.4085V24.0917L19.8196 22.0309C20.6484 21.3701 21.8132 21.3029 22.7092 21.8965L25.2852 23.5765L25.2964 23.5877Z" fill="#FF5805"/>
<path d="M9.40364 30.3629L17.2324 24.1133V30.4301L12.4836 34.2269C11.4196 35.0781 9.86283 34.8989 9.01163 33.8461C8.16043 32.7933 8.33963 31.2365 9.39243 30.3741L9.40364 30.3629Z" fill="#F1ACC8"/>
<path d="M36.7988 21.5376V27.7536L31.6916 31.6736C30.8628 32.312 29.7204 32.3568 28.8468 31.7856L28.746 31.7184V25.8272C29.5972 26.3088 30.6724 26.2416 31.4564 25.6368L36.7988 21.5488V21.5376Z" fill="#FF5805"/>
<path d="M28.6116 25.749C28.6116 25.749 28.69 25.7938 28.746 25.8274V31.7186L25.2964 29.4674V23.5874L28.6116 25.749Z" fill="#F1ACC8"/>
<path d="M49.522 15.7811L46.61 23.9235C46.3412 24.6851 45.3556 24.8643 44.8292 24.2595L43.4292 22.6691L36.7988 27.7539V21.5379L40.1812 18.9395L39.0164 17.5955C38.4788 16.9795 38.8148 16.0051 39.6324 15.8707L48.346 14.3923C49.13 14.2579 49.7796 15.0307 49.5108 15.7811H49.522Z" fill="#F1ACC8"/>
</svg>
