<svg width="111" height="22" viewBox="0 0 111 22" fill="none" xmlns="http://www.w3.org/2000/svg">
<path d="M109.936 16.4938C109.936 16.2699 109.745 16.1884 109.55 16.1884H109.183V17.2309H109.37V16.7952H109.505L109.749 17.2309H109.977L109.696 16.7748C109.843 16.7422 109.936 16.6445 109.936 16.4938ZM109.37 16.6445V16.3472H109.541C109.639 16.3472 109.749 16.3757 109.749 16.4897C109.749 16.616 109.627 16.6445 109.521 16.6445H109.37ZM109.545 15.7893C109.032 15.7893 108.617 16.2006 108.617 16.7137C108.617 17.2268 109.032 17.63 109.545 17.63C110.059 17.63 110.474 17.2268 110.474 16.7137C110.474 16.2006 110.059 15.7893 109.545 15.7893ZM109.545 17.4956C109.114 17.4956 108.764 17.1413 108.764 16.7137C108.764 16.282 109.114 15.9318 109.545 15.9318C109.977 15.9318 110.327 16.282 110.327 16.7137C110.327 17.1413 109.977 17.4956 109.545 17.4956Z" fill="black"/>
<path d="M49.816 15.9456C48.4579 15.9456 47.7731 14.7321 47.7731 13.5588C47.7731 12.3856 48.516 11.2237 49.7508 11.2237C50.3291 11.2237 51.0601 11.5137 51.347 11.9215L52.7848 10.4889C52.0888 9.75563 50.9795 9.3179 49.7508 9.3179C47.2503 9.3179 45.4354 11.1124 45.4354 13.5846C45.4354 16.097 47.23 17.8515 49.7996 17.8515C51.0223 17.8515 52.1523 17.4936 52.8222 16.7733L51.4237 15.2726C51.1007 15.6659 50.4235 15.9456 49.816 15.9456ZM41.775 17.624H44.0057V9.54531H41.775V17.624ZM37.7185 13.9745C37.7185 14.9238 37.0997 15.9456 35.9464 15.9456C35.0573 15.9456 34.5825 15.3115 34.5825 14.0071V9.54531H32.3517V14.5593C32.3517 16.2276 33.1842 17.8515 35.4104 17.8515C36.4602 17.8515 37.3396 17.0251 37.7827 16.4151H37.816V17.624H39.9493V9.54531H37.7185V13.9745ZM28.3272 10.571H28.2778C27.9627 10.2225 27.1089 9.3179 25.7226 9.3179C23.4481 9.3179 21.6953 11.0987 21.6953 13.5522C21.6953 16.0434 23.3127 17.8515 25.6156 17.8515C26.6612 17.8515 27.6434 17.2974 28.2128 16.6529H28.2459V21.6022H30.4766V9.54531H28.3272V10.571ZM26.1612 15.9456C24.7819 15.9456 23.9976 14.7416 23.9976 13.5522C23.9976 12.4151 24.7177 11.1912 26.1612 11.1912C27.4891 11.1912 28.3108 12.4336 28.3108 13.5846C28.3108 14.7452 27.5069 15.9456 26.1612 15.9456ZM76.9744 9.3179C74.4361 9.3179 72.5938 11.0987 72.5938 13.5522C72.5938 16.0912 74.477 17.8732 76.9744 17.8732C79.4715 17.8732 81.3547 16.0741 81.3547 13.5522C81.3547 11.0987 79.5125 9.3179 76.9744 9.3179ZM76.9744 15.9456C75.5197 15.9456 74.857 14.705 74.857 13.5522C74.857 12.4151 75.5197 11.1912 76.9744 11.1912C78.4291 11.1912 79.0916 12.4151 79.0916 13.5522C79.0916 14.705 78.4291 15.9456 76.9744 15.9456ZM104.864 12.6517C103.716 12.3777 103.311 12.2302 103.311 11.7653C103.311 11.1242 104.124 10.9835 104.491 10.9835C105.184 10.9835 105.965 11.3969 106.26 11.7893L107.575 10.5273C106.967 9.76315 105.77 9.3179 104.507 9.3179C102.893 9.3179 101.198 10.1299 101.198 11.9439C101.198 13.5017 102.419 13.9717 103.613 14.2579C104.872 14.551 105.322 14.7654 105.322 15.2726C105.322 16.0202 104.473 16.1423 104.181 16.1423C103.452 16.1423 102.606 15.7245 102.15 15.1831L100.795 16.5559C101.535 17.3763 102.802 17.87 104.1 17.87C106.281 17.87 107.575 16.8304 107.575 15.1148C107.575 13.4735 105.991 12.9217 104.864 12.6517ZM100.647 9.54531H97.7697L94.8895 12.8975H94.8399V5.09351H92.6092V17.624H94.8399V13.6394H94.8896L97.8777 17.624H100.813L97.3404 13.209L100.647 9.54531ZM67.5667 9.3179C66.5465 9.3179 65.7949 9.76387 65.0852 10.429H65.0434V5.09351H62.8128V17.624H64.946V16.4821H64.9794C65.4823 17.3071 66.4817 17.8515 67.5181 17.8515C69.8209 17.8515 71.5665 16.0434 71.5665 13.5522C71.5665 11.0987 69.8414 9.3179 67.5667 9.3179ZM67.1282 15.9456C65.7825 15.9456 64.9784 14.7452 64.9784 13.5846C64.9784 12.4336 65.8003 11.1912 67.1282 11.1912C68.5717 11.1912 69.2898 12.4151 69.2898 13.5522C69.2898 14.7416 68.5076 15.9456 67.1282 15.9456ZM61.9735 9.54531H59.0965L56.2163 12.8975H56.1667V5.09351H53.936V17.624H56.1667V13.6394H56.2164L59.2045 17.624H62.1401L58.6673 13.209L61.9735 9.54531ZM86.777 9.3179C84.2387 9.3179 82.3965 11.0987 82.3965 13.5522C82.3965 16.0912 84.2797 17.8732 86.777 17.8732C89.2741 17.8732 91.1574 16.0741 91.1574 13.5522C91.1574 11.0987 89.3151 9.3179 86.777 9.3179ZM86.777 15.9456C85.3223 15.9456 84.6596 14.705 84.6596 13.5522C84.6596 12.4151 85.3223 11.1912 86.777 11.1912C88.2317 11.1912 88.8942 12.4151 88.8942 13.5522C88.8942 14.705 88.2317 15.9456 86.777 15.9456Z" fill="black"/>
<path d="M9.79358 19.1912C14.9834 19.1912 19.1907 14.984 19.1907 9.79411C19.1907 4.60421 14.9834 0.396973 9.79358 0.396973C4.60371 0.396973 0.396484 4.60421 0.396484 9.79411C0.396484 14.984 4.60371 19.1912 9.79358 19.1912Z" fill="#2CA01C"/>
<path d="M3.00391 9.79356C3.00391 11.8118 4.64004 13.448 6.65833 13.448H7.18039V12.0906H6.65833C5.39173 12.0906 4.36126 11.0601 4.36126 9.79356C4.36126 8.52692 5.39173 7.4965 6.65833 7.4965H7.91286C7.91286 7.4965 7.91286 14.4622 7.91286 14.5965C7.91286 15.3461 8.52058 15.9538 9.27022 15.9538V6.13914C9.27022 6.13914 7.86554 6.13914 6.65833 6.13914C4.64004 6.13914 3.00391 7.77532 3.00391 9.79356ZM12.9249 6.13968H12.4029V7.49704H12.9249C14.1915 7.49704 15.222 8.5275 15.222 9.79411C15.222 11.0607 14.1915 12.0911 12.9249 12.0911H11.6704C11.6704 12.0911 11.6704 5.12547 11.6704 4.99115C11.6704 4.24147 11.0627 3.63379 10.313 3.63379V13.4485C10.313 13.4485 11.7177 13.4485 12.9249 13.4485C14.9432 13.4485 16.5794 11.8123 16.5794 9.79411C16.5794 7.77582 14.9432 6.13968 12.9249 6.13968Z" fill="white"/>
<path d="M30.8984 2.53709C31.2413 2.53709 31.5194 2.25897 31.5194 1.91613C31.5194 1.57328 31.2413 1.29517 30.8984 1.29517C30.5555 1.29517 30.2775 1.57328 30.2775 1.91613C30.2775 2.25897 30.5555 2.53709 30.8984 2.53709ZM27.1932 2.9554C26.5854 2.9554 26.0972 3.32376 25.9175 3.73465H25.9003V3.07547H24.9244V7.18568H25.9516V4.92486C25.9516 4.37707 26.2601 3.81167 26.9107 3.81167C27.5701 3.81167 27.6815 4.41989 27.6815 4.90778V7.18568H28.7089V4.61668C28.7089 3.7775 28.2638 2.9554 27.1932 2.9554ZM22.8438 7.18568H23.8713V3.07547H22.8438V7.18568ZM41.5301 2.53709C41.8729 2.53709 42.1509 2.25897 42.1509 1.91613C42.1509 1.57328 41.8729 1.29517 41.5301 1.29517C41.187 1.29517 40.9091 1.57328 40.9091 1.91613C40.9091 2.25897 41.187 2.53709 41.5301 2.53709ZM39.864 3.07293V3.98344H41.0163V7.18568H42.0438V3.98344H43.1959V3.07293H39.864ZM38.1166 7.18568H39.1442V3.07547H38.1166V7.18568ZM29.2325 3.98344H30.3846V7.18568H31.4122V3.98344H32.5642V3.07293H29.2325V3.98344ZM36.037 5.33603C36.037 5.88411 35.7286 6.44924 35.0781 6.44924C34.4187 6.44924 34.3073 5.84126 34.3073 5.35312V3.07547H33.2798V5.64422C33.2798 6.48365 33.7249 7.30545 34.7955 7.30545C35.4033 7.30545 35.8916 6.93739 36.0712 6.52621H36.0884V7.18568H37.0646V3.07547H36.037V5.33603Z" fill="black"/>
</svg>
