<svg width="79" height="30" viewBox="0 0 79 30" fill="none" xmlns="http://www.w3.org/2000/svg">
<g clip-path="url(#clip0)">
<path d="M68.724 0C62.635 0 58.6591 4.17053 58.6591 11.0658C58.6591 19.6293 64.7481 22.076 69.1132 22.076C74.6183 22.076 77.7601 18.3781 77.7601 18.3781L74.952 15.57C73.4506 16.9045 71.7268 17.7108 69.1688 17.7108C65.7768 17.7108 63.4969 15.7368 63.4969 13.012H78.622C78.5942 12.9842 81.2356 0 68.724 0V0ZM63.4969 9.28638C63.4969 5.61631 66.2773 3.86469 69.2523 3.86469C72.2272 3.86469 74.9242 5.67192 74.9242 9.28638H63.4969ZM13.0335 8.92493C11.0873 8.6747 5.49878 8.89713 5.49878 6.3392C5.49878 4.83781 7.83427 4.00371 10.0029 4.00371C13.4506 4.00371 15.7583 5.39388 16.3978 5.83874L19.3171 2.91937C18.4552 2.25208 15.2578 0 10.0029 0C5.22074 0 0.911197 2.50232 0.911197 6.50602C0.911197 12.6506 8.33474 12.6506 11.4209 12.9564C13.3116 13.1511 15.0076 13.2623 15.0076 15.0973C15.0076 16.8211 12.3941 17.7664 10.3644 17.7664C7.05578 17.7664 5.08173 16.6821 3.13548 14.9305L0.0214844 18.0723C2.88525 20.8526 6.52751 22.076 10.1142 22.076C15.6749 22.076 19.7064 19.6293 19.7064 14.7081C19.7064 11.4272 17.5099 9.481 13.0335 8.92493ZM28.9928 0C24.1827 0 21.0409 2.44671 20.4849 2.94717L23.4042 5.86654C23.9881 5.39388 25.9622 4.03151 29.0484 4.03151C32.7462 4.03151 33.8584 5.5051 33.8584 7.17331V9.25857H27.2689C24.8222 9.25857 20.04 9.87025 20.04 15.2363C20.04 19.1844 22.2921 22.076 27.686 22.076C30.3829 22.076 32.4404 21.1863 33.8584 19.5181V21.6589H38.6406V7.50695C38.6128 2.55792 35.5822 0 28.9928 0ZM33.8862 13.9296C33.8862 18.0167 30.9668 17.7943 28.3811 17.7943C25.7397 17.7943 24.0715 17.0992 24.0715 15.2641C24.0715 13.5681 25.4339 12.9842 28.2699 12.9842H33.8862V13.9296ZM53.3764 0.444856V2.80816C51.7638 0.94532 49.8176 0 47.1485 0C42.6165 0 40.281 2.53012 39.5025 5.25487C39.1966 6.25579 39.1132 8.17423 39.1132 11.0102C39.1132 13.6793 39.141 16.126 40.0586 17.9889C41.3653 20.6024 44.5071 22.076 47.1485 22.076C49.7064 22.076 51.8751 21.0751 53.3764 19.3791V20.7136C53.3764 22.2706 52.8482 23.2993 51.8472 24.1056C50.8463 24.912 49.5952 25.4124 47.8435 25.4124C46.2587 25.4124 44.7574 24.5505 43.8954 23.9388L40.6702 27.164C42.7555 28.8601 45.2578 30 47.927 30.0278C50.7629 30.0556 53.0706 29.1937 55.0725 27.6089C56.9909 26.1075 58.2143 23.2437 58.2143 20.241V0.444856H53.3764ZM53.3764 11.0102C53.3764 12.6506 53.3486 13.874 53.2096 14.4856C52.9038 15.848 51.3468 17.6552 48.5108 17.6552C47.7879 17.6552 44.1735 17.2382 43.7564 14.0964C43.673 13.4569 43.6174 12.6228 43.6174 10.9824C43.6174 8.53568 43.7286 7.75718 43.8398 7.1177C44.0901 5.89435 45.7027 4.05931 48.5108 4.05931C51.9307 4.05931 53.0428 6.39481 53.2096 7.31233C53.3486 7.97961 53.3764 9.36979 53.3764 11.0102Z" fill="black"/>
</g>
<defs>
<clipPath id="clip0">
<rect width="78.8643" height="30" fill="white"/>
</clipPath>
</defs>
</svg>
