<svg width="141" height="40" viewBox="0 0 141 40" fill="none" xmlns="http://www.w3.org/2000/svg">
<path d="M30.084 7.59096C30.056 7.39488 29.888 7.28284 29.7479 7.28284C29.6078 7.28284 26.8347 7.22682 26.8347 7.22682C26.8347 7.22682 24.5098 4.98592 24.2857 4.73382C24.0616 4.50973 23.6134 4.56575 23.4454 4.62177C23.4454 4.62177 22.9972 4.76183 22.2689 4.98592C22.1569 4.59376 21.9608 4.11757 21.7087 3.61337C20.8964 2.04474 19.6639 1.20441 18.2073 1.20441C18.0952 1.20441 18.0112 1.20441 17.8992 1.23242C17.8431 1.1764 17.8151 1.12037 17.7591 1.09236C17.1148 0.420092 16.3025 0.083958 15.3221 0.111969C13.4454 0.167992 11.5686 1.54054 10.028 3.9495C8.96359 5.65819 8.15126 7.78704 7.89916 9.4397C5.7423 10.112 4.22969 10.5882 4.17367 10.5882C3.08123 10.9243 3.05322 10.9523 2.91317 11.9887C2.85714 12.773 0 34.8739 0 34.8739L23.9776 39.0195L34.3697 36.4425C34.3417 36.4425 30.112 7.78704 30.084 7.59096ZM21.0644 5.37808C20.5042 5.54614 19.888 5.74222 19.2157 5.96631C19.2157 5.01393 19.0756 3.66939 18.6555 2.54894C20.084 2.77303 20.7843 4.39768 21.0644 5.37808ZM17.9552 6.33046C16.6947 6.72261 15.3221 7.14278 13.9496 7.56295C14.3417 6.07836 15.07 4.62177 15.9664 3.64138C16.3025 3.27724 16.7787 2.88508 17.3109 2.66099C17.8711 3.75343 17.9832 5.29404 17.9552 6.33046ZM15.3782 1.37247C15.8263 1.37247 16.1905 1.45651 16.4986 1.6806C15.9944 1.9327 15.4902 2.32485 15.042 2.82906C13.8375 4.11757 12.9132 6.10637 12.549 8.03914C11.4006 8.40329 10.2801 8.73942 9.27171 9.04754C9.94398 5.99432 12.493 1.45651 15.3782 1.37247Z" fill="#95BF47"/>
<path d="M29.7469 7.28283C29.6068 7.28283 26.8337 7.2268 26.8337 7.2268C26.8337 7.2268 24.5088 4.98591 24.2847 4.73381C24.2007 4.64977 24.0886 4.59375 23.9766 4.59375V39.0195L34.3687 36.4425C34.3687 36.4425 30.139 7.78703 30.111 7.59095C30.055 7.39487 29.8869 7.28283 29.7469 7.28283Z" fill="#5E8E3E"/>
<path d="M18.2074 12.6329L17.003 17.1427C17.003 17.1427 15.6584 16.5265 14.0618 16.6385C11.7088 16.7786 11.7088 18.2632 11.7088 18.6273C11.8489 20.6441 17.143 21.0923 17.4511 25.8262C17.6752 29.5517 15.4904 32.1007 12.2971 32.2968C8.48756 32.4929 6.38672 30.252 6.38672 30.252L7.19904 26.8066C7.19904 26.8066 9.3279 28.4032 11.0086 28.2912C12.101 28.2352 12.5212 27.3108 12.4652 26.6945C12.2971 24.0615 7.98336 24.2296 7.70325 19.8878C7.47916 16.2464 9.86011 12.5769 15.1262 12.2408C17.171 12.1007 18.2074 12.6329 18.2074 12.6329Z" fill="white"/>
<path d="M48.4315 22.2408C47.227 21.5965 46.6107 21.0363 46.6107 20.28C46.6107 19.3276 47.4791 18.7114 48.8236 18.7114C50.3923 18.7114 51.7928 19.3556 51.7928 19.3556L52.8853 15.9943C52.8853 15.9943 51.8769 15.21 48.9077 15.21C44.762 15.21 41.8769 17.5909 41.8769 20.9242C41.8769 22.829 43.2214 24.2576 45.0141 25.294C46.4707 26.1063 46.9749 26.6946 46.9749 27.5629C46.9749 28.4593 46.2466 29.1875 44.9021 29.1875C42.9133 29.1875 41.0085 28.1511 41.0085 28.1511L39.832 31.5125C39.832 31.5125 41.5687 32.6889 44.5099 32.6889C48.7676 32.6889 51.8488 30.5881 51.8488 26.8066C51.8208 24.7618 50.2802 23.3052 48.4315 22.2408Z" fill="black"/>
<path d="M65.4058 15.1541C63.305 15.1541 61.6523 16.1625 60.3918 17.6751L60.3358 17.6471L62.1565 8.12329H57.4226L52.8008 32.381H57.5347L59.1033 24.0897C59.7196 20.9524 61.3442 19.0196 62.8568 19.0196C63.9212 19.0196 64.3414 19.7479 64.3414 20.7844C64.3414 21.4286 64.2854 22.2409 64.1453 22.8852L62.3526 32.381H67.0865L68.9352 22.5771C69.1313 21.5407 69.2714 20.3082 69.2714 19.4678C69.2994 16.7788 67.8988 15.1541 65.4058 15.1541Z" fill="black"/>
<path d="M80.029 15.1541C74.3147 15.1541 70.5332 20.3081 70.5332 26.0504C70.5332 29.7199 72.8021 32.6891 77.0598 32.6891C82.6621 32.6891 86.4436 27.6751 86.4436 21.7927C86.4716 18.4034 84.4828 15.1541 80.029 15.1541ZM77.7041 29.0756C76.0794 29.0756 75.4072 27.7031 75.4072 25.9664C75.4072 23.2493 76.8077 18.8235 79.3848 18.8235C81.0654 18.8235 81.6257 20.2801 81.6257 21.6807C81.6257 24.5938 80.1971 29.0756 77.7041 29.0756Z" fill="black"/>
<path d="M98.5989 15.1541C95.4056 15.1541 93.5849 17.9832 93.5849 17.9832H93.5289L93.809 15.4342H89.6073C89.4112 17.1428 89.0191 19.7759 88.6549 21.7367L85.3496 39.1036H90.0835L91.4 32.0728H91.5121C91.5121 32.0728 92.4925 32.6891 94.2852 32.6891C99.8594 32.6891 103.501 26.9748 103.501 21.2045C103.501 18.0112 102.072 15.1541 98.5989 15.1541ZM94.0611 29.1316C92.8286 29.1316 92.1003 28.4314 92.1003 28.4314L92.8846 24.0056C93.4448 21.0364 94.9855 19.0756 96.6381 19.0756C98.0947 19.0756 98.5429 20.4202 98.5429 21.6807C98.5429 24.7619 96.7222 29.1316 94.0611 29.1316Z" fill="black"/>
<path d="M110.28 8.34741C108.767 8.34741 107.562 9.55189 107.562 11.0925C107.562 12.4931 108.459 13.4735 109.803 13.4735H109.859C111.344 13.4735 112.605 12.4651 112.633 10.7284C112.633 9.35581 111.708 8.34741 110.28 8.34741Z" fill="black"/>
<path d="M103.641 32.3529H108.375L111.596 15.5461H106.834L103.641 32.3529Z" fill="black"/>
<path d="M123.669 15.5182H120.364L120.532 14.7339C120.812 13.1092 121.765 11.6807 123.361 11.6807C124.202 11.6807 124.874 11.9328 124.874 11.9328L125.798 8.20728C125.798 8.20728 124.986 7.78711 123.221 7.78711C121.54 7.78711 119.86 8.2633 118.571 9.35574C116.947 10.7283 116.19 12.7171 115.826 14.7339L115.686 15.5182H113.473L112.773 19.1036H114.986L112.465 32.3809H117.199L119.72 19.1036H122.997L123.669 15.5182Z" fill="black"/>
<path d="M135.097 15.5461C135.097 15.5461 132.128 23.0251 130.812 27.1148H130.756C130.672 25.7982 129.579 15.5461 129.579 15.5461H124.593L127.45 30.9803C127.506 31.3164 127.478 31.5405 127.338 31.7646C126.778 32.8291 125.854 33.8655 124.761 34.6218C123.865 35.266 122.857 35.6862 122.072 35.9663L123.389 39.9999C124.341 39.8038 126.358 38.9915 128.039 37.4229C130.196 35.4061 132.212 32.2688 134.257 28.0111L140.055 15.5461H135.097Z" fill="black"/>
</svg>
