<svg width="51" height="40" viewBox="0 0 51 40" fill="none" xmlns="http://www.w3.org/2000/svg">
<path d="M31.9473 7.97436C31.0016 7.02867 29.4681 7.02867 28.5229 7.97436L13.1118 23.386C11.2194 25.2769 8.15343 25.2769 6.26256 23.386C4.36967 21.4946 4.36967 18.4281 6.26256 16.5358L21.377 1.42129C19.4856 -0.470586 16.4187 -0.470586 14.5273 1.42129L2.83669 13.1114C-0.945564 16.8947 -0.945564 23.0271 2.83669 26.8108C6.61995 30.5941 12.7524 30.5941 16.5356 26.8108L31.9473 11.3992C32.8924 10.4535 32.8924 8.92005 31.9473 7.97436ZM37.0843 2.83782C33.301 -0.94594 27.1686 -0.94594 23.3854 2.83782L7.97424 18.2484C7.02905 19.1936 7.02905 20.7281 7.97424 21.6733C8.91992 22.619 10.4529 22.619 11.3986 21.6733L26.8107 6.26268C28.7021 4.3708 31.7681 4.3708 33.6589 6.26268C34.6056 7.20787 36.1386 7.20787 37.0843 6.26268C38.03 5.31599 38.03 3.78351 37.0843 2.83782ZM42.2218 18.2484C41.2762 17.3038 39.7422 17.3038 38.7965 18.2484L23.3854 33.6596C21.494 35.5509 18.427 35.5509 16.5356 33.6596C15.5904 32.7144 14.0575 32.7144 13.1118 33.6596C12.1646 34.6058 12.1646 36.1392 13.1118 37.0839C16.8935 40.8672 23.0275 40.8672 26.8107 37.0839L42.2218 21.6733C43.167 20.7281 43.167 19.1936 42.2218 18.2484ZM47.3594 13.1119C43.5761 9.32915 37.4427 9.32915 33.6604 13.1119L18.2483 28.5235C17.3026 29.4682 17.3026 31.0027 18.2483 31.9479C19.1945 32.8941 20.728 32.8941 21.6732 31.9479L37.0843 16.5368C38.9752 14.6449 42.0426 14.6449 43.9335 16.5368C45.8249 18.4281 45.8249 21.4946 43.9335 23.386L28.8191 38.501C30.7104 40.3918 33.7759 40.3918 35.6688 38.501L47.3594 26.8108C51.1416 23.0271 51.1416 16.8947 47.3594 13.1119Z" fill="#1A1918"/>
</svg>
