<svg width="40" height="40" viewBox="0 0 40 40" fill="none" xmlns="http://www.w3.org/2000/svg">
<path d="M20.0004 40C31.0458 40 40 31.0451 40 20C40 8.9531 31.0467 0 20.0004 0C8.9542 0 0 8.9531 0 20C0 31.0451 8.9542 40 20.0004 40Z" fill="#1FC0E7"/>
<path d="M9.74419 19.995L13.1504 16.5728C13.2633 16.459 13.3264 16.3061 13.3264 16.1444C13.3264 15.8066 13.0526 15.5328 12.7157 15.5328C12.5513 15.5328 12.3975 15.5968 12.282 15.715L8.87752 19.1221L5.45975 15.7088C5.34419 15.595 5.1913 15.5328 5.02864 15.5328C4.69086 15.5328 4.41797 15.8066 4.41797 16.1435C4.41797 16.3079 4.48375 16.4635 4.60108 16.579L8.0073 19.9897L4.60286 23.403C4.48375 23.5221 4.41797 23.6768 4.41797 23.8413C4.41797 24.179 4.69175 24.4528 5.02864 24.4528C5.1913 24.4528 5.34419 24.3906 5.45975 24.275L8.87308 20.8599L12.2731 24.2617C12.394 24.3861 12.5486 24.4528 12.7157 24.4528C13.0517 24.4528 13.3255 24.179 13.3255 23.8413C13.3255 23.6786 13.2633 23.5257 13.1477 23.4101L9.7433 19.9915L9.74419 19.995ZM29.994 19.9941C29.994 20.6075 30.4917 21.1053 31.1051 21.1053C31.7149 21.1053 32.2126 20.6075 32.2126 19.9941C32.2126 19.3808 31.7149 18.883 31.1042 18.883C30.4935 18.883 29.9966 19.3808 29.9966 19.9941H29.994ZM27.8917 19.9941C27.8917 18.2208 29.3317 16.7764 31.1042 16.7764C32.8731 16.7764 34.3157 18.2208 34.3157 19.9941C34.3157 21.7675 32.874 23.2119 31.1042 23.2119C29.3326 23.2119 27.8917 21.7693 27.8917 19.9941ZM26.6277 19.9941C26.6277 22.4653 28.6366 24.4777 31.1042 24.4777C33.5717 24.4777 35.5806 22.467 35.5806 19.995C35.5806 17.5239 33.5717 15.5115 31.1042 15.5115C28.6357 15.5115 26.6277 17.523 26.6277 19.995V19.9941ZM26.3104 15.5879H26.1237C25.5593 15.5879 25.0153 15.7657 24.5611 16.1168C24.4989 15.8448 24.2535 15.6368 23.962 15.6368C23.6269 15.6368 23.3575 15.9079 23.3575 16.2448L23.3593 23.7959C23.3593 24.131 23.6349 24.4039 23.9682 24.4039C24.3042 24.4039 24.578 24.131 24.5789 23.7941V19.1506C24.5789 17.6039 24.7211 16.9781 26.0437 16.8128C26.1682 16.7977 26.2997 16.8004 26.3015 16.8004C26.6624 16.787 26.9202 16.5373 26.9202 16.2004C26.9202 15.8626 26.6446 15.5888 26.3069 15.5888L26.3104 15.5879ZM14.5895 19.2573C14.5895 19.2395 14.5913 19.2217 14.5922 19.2057C14.946 17.8013 16.2153 16.7639 17.7255 16.7639C19.2544 16.7639 20.5344 17.8253 20.8722 19.2546H14.5886L14.5895 19.2573ZM22.1211 19.1417C21.858 17.8946 21.1762 16.8697 20.1389 16.2119C18.6206 15.2466 16.6171 15.2999 15.1522 16.3453C13.9557 17.1959 13.2651 18.5897 13.2651 20.0253C13.2651 20.3853 13.3095 20.7488 13.3984 21.107C13.85 22.8848 15.3771 24.2324 17.1975 24.4555C17.738 24.5213 18.2642 24.491 18.8064 24.3488C19.2757 24.2333 19.7282 24.0448 20.1451 23.7764C20.578 23.4981 20.9397 23.1301 21.2917 22.6901C21.2971 22.6813 21.3042 22.675 21.3113 22.6661C21.5549 22.3639 21.5095 21.9319 21.2429 21.7275C21.0171 21.5541 20.6384 21.4839 20.3415 21.8661C20.2775 21.9586 20.2055 22.0528 20.1282 22.1461C19.8909 22.4084 19.5966 22.6617 19.2446 22.859C18.7949 23.099 18.2846 23.235 17.7424 23.2386C15.9664 23.2181 15.0171 21.9764 14.6784 21.091C14.6197 20.9248 14.5744 20.7533 14.5424 20.5755L14.5335 20.4821H20.9069C21.7797 20.4626 22.2491 19.8448 22.1193 19.1399L22.1211 19.1417Z" fill="white"/>
</svg>
