<svg width="116" height="40" viewBox="0 0 116 40" fill="none" xmlns="http://www.w3.org/2000/svg">
<path d="M115.707 8.51978V35.9548L111.91 39.661V12.8136L115.707 8.51978Z" fill="#E79225"/>
<path d="M90.8267 8.54237L86.8945 12.8136L87.0979 13.0847L111.753 12.9943L111.979 12.8136L115.708 8.51978L90.8267 8.54237Z" fill="#FFF16D"/>
<path d="M111.979 12.8135H86.8945V39.6835H111.979V12.8135Z" fill="url(#paint0_linear)"/>
<path d="M108.161 22.4857C107.663 21.2427 106.918 20.1128 105.946 19.1411C105.019 18.1919 103.98 17.4687 102.805 16.9942C101.652 16.5196 100.409 16.271 99.0532 16.271C97.6972 16.271 96.4317 16.5196 95.2792 16.9942C94.104 17.4687 93.0645 18.1919 92.1379 19.1411C91.1662 20.1128 90.443 21.2427 89.9458 22.4857C89.4486 23.7286 89.2227 25.0846 89.2227 26.5761C89.2227 28.0224 89.4712 29.3783 89.9684 30.6439C90.4656 31.9094 91.1888 33.0394 92.1605 34.0337C93.0645 34.9603 94.104 35.6608 95.2566 36.1354C96.4091 36.61 97.6972 36.8586 99.0758 36.8586C100.409 36.8586 101.652 36.61 102.805 36.1354C103.957 35.6608 105.019 34.9603 105.946 34.0337C106.918 33.0394 107.663 31.9094 108.161 30.6665C108.658 29.4235 108.906 28.045 108.906 26.5987C108.906 25.0846 108.658 23.7286 108.161 22.4857ZM102.985 31.3444C102.014 32.497 100.725 33.0846 99.0532 33.0846C97.3808 33.0846 96.0701 32.497 95.0984 31.3444C94.1266 30.1919 93.652 28.5874 93.652 26.5535C93.652 24.4744 94.1492 22.8699 95.0984 21.6947C96.0701 20.5196 97.3582 19.9546 99.0532 19.9546C100.725 19.9546 102.014 20.5422 102.985 21.6947C103.935 22.8699 104.432 24.4744 104.432 26.5535C104.432 28.5874 103.957 30.1919 102.985 31.3444Z" fill="white"/>
<path d="M84.4256 6.28247V6.41806L87.6347 31.0734L85.759 36.2712L85.5104 36.0904L82.2109 12.452L82.2787 12.1356L84.3352 6.41806L84.4256 6.28247Z" fill="#009ADA"/>
<path d="M59.7254 9.7175L84.4259 6.28247L82.3468 12.2034L82.0531 12.5198L58.957 15.9096L59.07 11.6836L59.7254 9.7175Z" fill="#91C9ED"/>
<path d="M82.3479 12.2034L85.7603 36.2712L61.4214 39.6836L58.1445 16.4294L59.5683 15.322L82.3479 12.2034Z" fill="url(#paint1_linear)"/>
<path d="M78.2116 16.8136C78.0986 16.0679 77.85 15.5029 77.4432 15.1187C77.1042 14.8249 76.6974 14.6667 76.2229 14.6667C76.1099 14.6667 75.9743 14.6667 75.8387 14.6893C75.2059 14.7797 74.7313 15.0735 74.4375 15.5481C74.2116 15.8871 74.1212 16.3165 74.1212 16.8136C74.1212 16.9944 74.1438 17.1978 74.1664 17.4012L75.0477 23.6611L68.0421 24.7007L67.1607 18.4408C67.0477 17.7176 66.7991 17.1526 66.3923 16.7684C66.0534 16.4521 65.6466 16.2939 65.1946 16.2939C65.0816 16.2939 64.9686 16.2939 64.8556 16.3165C64.2003 16.4069 63.7031 16.7006 63.3867 17.1752C63.1607 17.5142 63.0703 17.9436 63.0703 18.4408C63.0703 18.6216 63.0929 18.8249 63.1155 19.0509L65.511 35.3447C65.624 36.0905 65.8726 36.6555 66.3246 37.0396C66.6635 37.3334 67.0703 37.469 67.5675 37.469C67.7031 37.469 67.8387 37.469 67.9743 37.4464C68.5844 37.356 69.0364 37.0622 69.3302 36.5877C69.5336 36.2487 69.624 35.8419 69.624 35.3673C69.624 35.1865 69.6014 34.9831 69.5788 34.7798L68.607 28.3391L75.6127 27.2995L76.5844 33.7402C76.6974 34.486 76.946 35.0509 77.3754 35.4125C77.7144 35.7063 78.1212 35.8645 78.5957 35.8645C78.7087 35.8645 78.8443 35.8645 78.9799 35.8419C79.6127 35.7515 80.0873 35.4577 80.381 34.9831C80.5844 34.6442 80.6974 34.2374 80.6974 33.7402C80.6974 33.5594 80.6748 33.356 80.6522 33.1526L78.2116 16.8136Z" fill="white"/>
<path d="M36.6074 0L27.8164 20.8814L29.0141 30.0565L29.0819 30.0339L38.9576 7.81921L38.9124 7.34463L36.7882 0.293785L36.6074 0Z" fill="#66BF6B"/>
<path d="M36.6094 0L38.8919 7.66102L38.9371 7.81921L60.6772 17.5593L60.745 17.5141L58.8919 10.1921L36.6094 0Z" fill="#98D0A0"/>
<path d="M38.8874 7.66113L60.7405 17.5142L50.8648 39.9097L29.0117 30.0566L38.8874 7.66113Z" fill="url(#paint2_linear)"/>
<path d="M54.1231 19.3221C53.6485 18.0565 52.9931 16.9718 52.1344 16.0678C51.2756 15.1639 50.2361 14.4407 49.0158 13.9209C47.7954 13.4012 46.5751 13.1526 45.3321 13.1526H45.2643C43.9988 13.1526 42.7559 13.4464 41.5355 13.9887C40.2474 14.5537 39.14 15.3221 38.1909 16.339C37.2417 17.3334 36.4734 18.5537 35.8858 19.9548C35.2982 21.3334 34.9819 22.7345 34.9141 24.113V24.5876C34.9141 25.808 35.1175 27.0057 35.5468 28.1808C35.9988 29.4238 36.6542 30.4859 37.5129 31.3899C38.3717 32.2938 39.4338 33.017 40.6994 33.5368C41.8971 34.0565 43.1174 34.3051 44.3604 34.3051H44.383C45.6259 34.3051 46.8689 34.0339 48.0892 33.5142C49.3773 32.9492 50.5073 32.1582 51.4564 31.1413C52.4056 30.1469 53.1965 28.9492 53.7841 27.5481C54.3717 26.1469 54.6881 24.7684 54.7559 23.3899V22.9831C54.7785 21.7402 54.5751 20.5198 54.1231 19.3221ZM49.7615 25.8306C48.948 27.7741 47.8406 29.1074 46.5073 29.8306C45.7841 30.2147 45.0384 30.4181 44.2926 30.4181C43.6372 30.4181 42.9367 30.2599 42.2361 29.9661C40.6994 29.3108 39.7502 28.2712 39.3434 26.7797C39.2078 26.2825 39.14 25.7628 39.14 25.2204C39.14 24.1356 39.4112 22.9379 39.9536 21.6498C40.7898 19.6611 41.8971 18.3051 43.2304 17.5594C43.9536 17.1526 44.6994 16.9718 45.4451 16.9718C46.1231 16.9718 46.8011 17.13 47.5242 17.4238C49.0384 18.0791 49.9875 19.1187 50.3943 20.6102C50.5299 21.0848 50.5977 21.6046 50.5977 22.1469C50.5977 23.2769 50.3265 24.4972 49.7615 25.8306Z" fill="white"/>
<path d="M26.0791 3.5481L29.6497 27.4577L28.0226 35.8645L27.7966 35.5707L24.3164 12.4746V12.0227L25.8531 3.95488L26.0791 3.5481Z" fill="#760D16"/>
<path d="M0 15.9097L1.69492 7.4577L26.0791 3.5481L24.4294 12.1583V12.7232L0.293785 16.1357L0 15.9097Z" fill="#EF463E"/>
<path d="M24.4294 12.1582L28.0226 35.8644L3.88701 39.6384L0 15.9096L24.4294 12.1582Z" fill="url(#paint3_linear)"/>
<path d="M21.8298 32.0905C21.649 31.8646 21.3778 31.7064 21.0614 31.5934C20.7451 31.4804 20.3609 31.4352 19.8863 31.4352C19.4569 31.4352 18.9597 31.4804 18.4174 31.5708L12.0445 32.6555C12.1123 32.1583 12.3609 31.5256 12.7903 30.7346C13.2648 29.8533 13.988 28.7911 14.9145 27.5708C15.2309 27.1414 15.4795 26.825 15.6603 26.599C15.7733 26.4408 15.9541 26.2374 16.1801 25.9437C17.649 24.0227 18.5304 22.4634 18.8919 21.2431C19.0953 20.5425 19.2083 19.842 19.2535 19.1414C19.2761 18.938 19.2761 18.7572 19.2761 18.5764C19.2761 18.0792 19.2309 17.5821 19.1405 17.0849C19.0727 16.6329 18.9597 16.2713 18.8016 15.9775C18.6434 15.6838 18.4626 15.4578 18.2366 15.3222C17.988 15.164 17.6038 15.0962 17.1292 15.0962C16.7451 15.0962 16.2705 15.1414 15.7055 15.2318L8.33828 16.4973C7.45692 16.6555 6.77896 16.9041 6.37218 17.3109C6.03319 17.6273 5.875 18.034 5.875 18.486C5.875 18.599 5.875 18.7346 5.8976 18.8702C6.01059 19.503 6.32698 19.9549 6.84675 20.1809C7.16314 20.3165 7.52472 20.3843 7.97669 20.3843C8.27048 20.3843 8.60946 20.3617 8.97105 20.2939L15.1179 19.2092C15.1179 19.3222 15.1405 19.4352 15.1405 19.5256C15.1405 19.9098 15.0727 20.2939 14.9371 20.6555C14.7564 21.1753 14.3044 21.8985 13.5586 22.825C13.3552 23.0736 13.0388 23.4804 12.6095 24.0001C10.9371 26.0114 9.76201 27.729 9.03884 29.1527C8.51907 30.147 8.18008 31.0962 7.97669 32.0679C7.8637 32.6329 7.7959 33.1527 7.7959 33.6725C7.7959 34.034 7.8185 34.3956 7.8863 34.7346C7.9767 35.2318 8.08969 35.6386 8.24788 35.9549C8.40607 36.2713 8.63206 36.5199 8.88065 36.6555C9.12924 36.7911 9.46822 36.8363 9.9654 36.8363C10.5756 36.8363 11.4117 36.7459 12.4739 36.5651L19.1631 35.4126C20.3383 35.2092 21.1744 34.9154 21.649 34.5312C22.0332 34.2148 22.2366 33.7855 22.2366 33.2883C22.2366 33.1527 22.214 33.0171 22.1914 32.8815C22.1462 32.5877 22.0332 32.3165 21.8298 32.0905Z" fill="white"/>
<defs>
<linearGradient id="paint0_linear" x1="99.4359" y1="13.198" x2="99.4359" y2="38.8724" gradientUnits="userSpaceOnUse">
<stop offset="0.005618" stop-color="#FFE513"/>
<stop offset="1" stop-color="#FDB924"/>
</linearGradient>
<linearGradient id="paint1_linear" x1="59.3907" y1="15.9116" x2="84.4674" y2="36.2495" gradientUnits="userSpaceOnUse">
<stop offset="0.005618" stop-color="#008CD2"/>
<stop offset="1" stop-color="#00649D"/>
</linearGradient>
<linearGradient id="paint2_linear" x1="44.8766" y1="16.6194" x2="44.8766" y2="39.1128" gradientUnits="userSpaceOnUse">
<stop stop-color="#26A146"/>
<stop offset="1" stop-color="#008A52"/>
</linearGradient>
<linearGradient id="paint3_linear" x1="12.2554" y1="14.4137" x2="15.9806" y2="37.7922" gradientUnits="userSpaceOnUse">
<stop stop-color="#D92231"/>
<stop offset="1" stop-color="#BA2234"/>
</linearGradient>
</defs>
</svg>
