<svg width="56" height="56" viewBox="0 0 56 56" fill="none" xmlns="http://www.w3.org/2000/svg">
<g clip-path="url(#clip0_12878_13590)">
<path d="M56 28C56 41.03 47.09 51.99 35.03 55.11C32.78 55.69 30.43 56 28 56C26.27 56 24.57 55.84 22.93 55.53C9.88 53.16 0 41.73 0 28C0 12.54 12.53 0 28 0C43.47 0 56 12.54 56 28Z" fill="#F9EDF2"/>
<path d="M34.05 21.2196L33.95 22.7396L33.82 24.6696C33.59 24.9296 33.36 25.1896 33.13 25.4396C31.97 26.7196 30.13 26.9896 28.68 26.2496L28.85 25.6096L29.64 22.5696L29.99 21.2196C29.99 20.0396 30.9 19.0796 32.03 19.0796C33.16 19.0796 34.07 20.0496 34.07 21.2196H34.05Z" fill="#FF5805"/>
<path d="M34.05 21.2196L34.03 21.5096C32.99 22.2096 31.74 22.6196 30.38 22.6196C30.13 22.6196 29.88 22.5996 29.62 22.5696L29.97 21.2196C29.97 20.0396 30.88 19.0796 32.01 19.0796C33.14 19.0796 34.05 20.0396 34.05 21.2196Z" fill="#FF5805"/>
<path d="M30.38 22.6298C33.9919 22.6298 36.92 19.7017 36.92 16.0898C36.92 12.4779 33.9919 9.5498 30.38 9.5498C26.7681 9.5498 23.84 12.4779 23.84 16.0898C23.84 19.7017 26.7681 22.6298 30.38 22.6298Z" fill="#FF5805"/>
<path d="M33.65 44.0896C33.45 44.6196 33.37 45.1896 33.37 45.7496V51.2196H24.53V45.5396C24.53 44.5796 24.32 43.6296 23.92 42.7496L18.14 30.0596C17.47 28.5596 17.56 26.7896 18.41 25.3896L21.9 19.6096L23.86 16.5596C23.98 18.4196 24.9 20.0696 26.27 21.1696L24.44 24.3996C24.09 25.0396 24.23 25.8496 24.77 26.3096L26.85 28.1296C27.35 28.5696 28.12 28.3196 28.3 27.6396L28.66 26.2396L28.83 25.5996L29.61 22.5696L29.96 21.2196C29.96 20.0396 30.87 19.0796 32 19.0796C33.13 19.0796 34.04 20.0396 34.04 21.2196L34.02 21.5096L33.94 22.7396L33.81 24.6696L33.18 34.0696C33.18 34.0696 35.88 38.0396 33.65 44.0796V44.0896Z" fill="#F1ACC8"/>
<path d="M33.73 47.1196H24.22C24.01 47.1196 23.84 47.2996 23.84 47.5196V51.0696C23.84 51.2896 24.01 51.4696 24.22 51.4696H33.73C33.94 51.4696 34.11 51.2896 34.11 51.0696V47.5196C34.11 47.2996 33.94 47.1196 33.73 47.1196Z" fill="white"/>
<path d="M35.03 55.1096C32.78 55.6896 30.43 55.9995 28 55.9995C26.27 55.9995 24.57 55.8395 22.93 55.5295L22.95 51.0995C22.96 50.4295 23.33 49.8696 23.84 49.6496C24 49.5696 24.16 49.5396 24.33 49.5396H33.62C33.79 49.5396 33.97 49.5696 34.11 49.6496H34.12C34.63 49.8896 34.99 50.4295 35.01 51.0995L35.03 55.1096Z" fill="#2D375E"/>
</g>
<defs>
<clipPath id="clip0_12878_13590">
<rect width="56" height="56" fill="white"/>
</clipPath>
</defs>
</svg>
