<svg width="227" height="45" viewBox="0 0 227 45" fill="none" xmlns="http://www.w3.org/2000/svg">
    <g clip-path="url(#clip0_15213_408)">
        <path d="M121.763 38.448C121.765 38.2027 121.861 37.9674 122.032 37.791C122.202 37.6145 122.434 37.5104 122.679 37.5003C123.077 37.5003 123.325 37.8055 123.325 38.2008C123.326 38.445 123.232 38.6801 123.062 38.8556C122.893 39.0311 122.661 39.133 122.417 39.1394C122.327 39.1416 122.238 39.125 122.155 39.0905C122.072 39.056 121.997 39.0045 121.936 38.9393C121.874 38.8741 121.827 38.7966 121.797 38.712C121.768 38.6274 121.756 38.5374 121.763 38.448ZM124.775 38.448C124.777 38.2028 124.873 37.9677 125.043 37.7914C125.214 37.615 125.445 37.5108 125.69 37.5003C126.089 37.5003 126.336 37.8055 126.336 38.2008C126.338 38.4448 126.244 38.68 126.075 38.8555C125.905 39.0311 125.673 39.133 125.429 39.1394C125.339 39.1418 125.25 39.1253 125.167 39.091C125.084 39.0566 125.009 39.0051 124.948 38.9399C124.886 38.8746 124.838 38.7971 124.809 38.7124C124.779 38.6276 124.767 38.5376 124.775 38.448ZM127.786 38.448C127.788 38.2028 127.884 37.9677 128.054 37.7914C128.225 37.615 128.456 37.5108 128.701 37.5003C129.1 37.5003 129.349 37.8055 129.349 38.2008C129.35 38.445 129.256 38.6801 129.086 38.8556C128.916 39.0311 128.685 39.133 128.44 39.1394C128.351 39.1416 128.262 39.1249 128.179 39.0905C128.096 39.056 128.021 39.0045 127.959 38.9393C127.898 38.8742 127.85 38.7968 127.82 38.7121C127.79 38.6275 127.779 38.5375 127.786 38.448ZM129.788 41.0548L130.161 40.1925C130.284 40.2596 130.423 40.2943 130.563 40.2932C131.021 40.2932 131.479 39.8994 131.784 39.2859L131.949 38.9593L131.008 33.5764H132.189L132.529 36.3236C132.592 36.8135 132.641 37.4423 132.667 37.9566H132.711C132.95 37.4468 133.225 36.8364 133.474 36.3236L134.825 33.5764H135.984L132.923 39.2996C132.256 40.484 131.578 41.2455 130.495 41.2455C130.248 41.2333 130.007 41.1682 129.788 41.0548ZM135.933 36.9249C135.933 34.8492 137.434 33.436 138.927 33.436C140.148 33.436 140.954 34.2952 140.954 35.6505C140.954 37.7261 139.454 39.1394 137.961 39.1394C136.738 39.1394 135.933 38.2801 135.933 36.9249ZM139.748 35.6902C139.748 34.8706 139.417 34.4021 138.791 34.4021C137.929 34.4021 137.128 35.4948 137.128 36.8852C137.128 37.7048 137.459 38.1733 138.083 38.1733C138.953 38.1733 139.754 37.0867 139.754 35.6902H139.748ZM146.01 39.0066H145.041L145.093 38.2267H145.049C144.504 38.7227 143.88 39.1424 143.225 39.1424C142.309 39.1424 141.937 38.6373 141.937 37.7689C141.938 37.512 141.968 37.2561 142.025 37.0058L142.71 33.5764H143.898L143.237 36.8577C143.189 37.0461 143.159 37.2389 143.15 37.4331C143.15 37.891 143.371 38.129 143.828 38.129C144.194 38.129 144.62 37.8665 145.169 37.2866L145.905 33.5764H147.092L146.01 39.0066ZM148.739 33.5764H149.708L149.61 34.6264H149.655C150.084 33.9534 150.682 33.4436 151.333 33.4436C151.521 33.4349 151.707 33.4699 151.878 33.5459L151.48 34.5867C151.321 34.5179 151.148 34.4876 150.975 34.4982C150.465 34.4982 149.943 34.9011 149.496 35.7283L148.853 39.0142H147.668L148.739 33.5764ZM155.013 39.5377L154.708 41.1586H153.522L155.048 33.5688H156.017L155.991 34.2372H156.022C156.544 33.7794 157.168 33.436 157.789 33.436C158.745 33.436 159.338 34.1441 159.338 35.42C159.338 37.4972 157.922 39.1394 156.42 39.1394C156.175 39.1361 155.936 39.0685 155.725 38.9434C155.515 38.8183 155.341 38.6401 155.221 38.4267H155.198L155.013 39.5377ZM155.904 35.2033L155.447 37.5186C155.682 37.9764 156.004 38.1611 156.35 38.1611C157.266 38.1611 158.111 36.9783 158.111 35.5788C158.111 34.7867 157.806 34.4143 157.302 34.4143C156.874 34.4143 156.32 34.6707 155.904 35.2033ZM163.111 33.436C164.373 33.436 164.842 34.3166 164.842 35.4414C164.832 35.8367 164.752 36.227 164.604 36.5937H161.295C161.181 37.7399 161.814 38.2267 162.641 38.2267C163.044 38.1976 163.43 38.05 163.749 37.8024L164.183 38.5655C163.638 38.9439 162.99 39.1449 162.327 39.1409C161.029 39.1409 160.149 38.2954 160.149 36.8379C160.149 34.808 161.681 33.436 163.111 33.436ZM163.801 35.8397C163.837 35.683 163.855 35.5228 163.854 35.362C163.854 34.8355 163.629 34.3609 162.969 34.3609C162.31 34.3609 161.663 34.9103 161.402 35.8397H163.801ZM168.847 35.6185C168.879 35.4992 168.895 35.3759 168.894 35.2522C168.894 34.6051 168.589 34.3746 168.041 34.3746C167.571 34.3746 167.142 34.5425 166.618 34.8325L166.248 33.9961C166.876 33.6567 167.574 33.4671 168.288 33.4421C169.408 33.4421 170.068 33.964 170.068 35.1423C170.065 35.399 170.035 35.6548 169.979 35.9054L169.369 39.0097H168.406L168.421 38.416H168.386C167.961 38.8143 167.317 39.1424 166.734 39.1424C165.994 39.1424 165.375 38.6419 165.375 37.8009C165.37 36.2305 166.849 35.6719 168.847 35.6185ZM166.53 37.5582C166.53 37.9963 166.835 38.2145 167.261 38.2145C167.65 38.2145 168.024 37.9963 168.451 37.6208L168.709 36.3724C167.287 36.4029 166.53 36.8364 166.53 37.5582ZM171.066 36.9249C171.066 34.9774 172.491 33.436 174.182 33.436C174.456 33.433 174.727 33.4916 174.975 33.6072C175.224 33.7229 175.443 33.8928 175.617 34.1045L174.944 34.8172C174.692 34.5379 174.471 34.4021 174.107 34.4021C173.134 34.4021 172.276 35.5345 172.276 36.8852C172.276 37.7048 172.639 38.1733 173.373 38.1733C173.753 38.1572 174.116 38.0106 174.4 37.7582L174.91 38.506C174.405 38.9133 173.775 39.1367 173.126 39.1394C171.933 39.1394 171.066 38.3336 171.066 36.9249ZM178.778 33.436C180.04 33.436 180.51 34.3166 180.51 35.4414C180.5 35.8368 180.419 36.2271 180.27 36.5937H176.961C176.847 37.7399 177.48 38.2267 178.308 38.2267C178.711 38.1976 179.096 38.05 179.416 37.8024L179.849 38.5655C179.304 38.9439 178.656 39.1449 177.993 39.1409C176.696 39.1409 175.815 38.2954 175.815 36.8379C175.818 34.808 177.344 33.436 178.778 33.436ZM179.469 35.8397C179.503 35.6828 179.521 35.5227 179.521 35.362C179.521 34.8355 179.295 34.3609 178.636 34.3609C177.976 34.3609 177.329 34.9103 177.068 35.8397H179.469ZM180.583 40.2779C181.358 40.0246 181.804 39.5469 181.925 39.0066L182.048 38.0405L182.353 38.8555C182.233 38.9575 182.082 39.018 181.925 39.028C181.499 39.028 181.194 38.7762 181.194 38.3641C181.192 38.2498 181.213 38.1363 181.256 38.0305C181.299 37.9246 181.363 37.8285 181.445 37.7479C181.526 37.6673 181.622 37.6039 181.728 37.5613C181.834 37.5188 181.948 37.498 182.062 37.5003C182.553 37.5003 182.825 37.8467 182.825 38.4038C182.825 39.6491 182.001 40.6442 180.722 40.954L180.583 40.2779ZM186.502 36.9249C186.502 34.8492 188.003 33.436 189.496 33.436C190.717 33.436 191.523 34.2952 191.523 35.6505C191.523 37.7261 190.023 39.1394 188.53 39.1394C187.314 39.1394 186.502 38.2801 186.502 36.9249ZM190.317 35.6902C190.317 34.8706 189.984 34.4021 189.36 34.4021C188.498 34.4021 187.695 35.4948 187.695 36.8852C187.695 37.7048 188.028 38.1733 188.652 38.1733C189.528 38.1733 190.329 37.0867 190.329 35.6902H190.317ZM196.585 39.0066H195.615L195.668 38.2267H195.624C195.079 38.7227 194.455 39.1424 193.792 39.1424C192.877 39.1424 192.503 38.6373 192.503 37.7689C192.504 37.5119 192.534 37.256 192.593 37.0058L193.278 33.5733H194.465L193.805 36.8547C193.756 37.043 193.727 37.2358 193.718 37.43C193.718 37.8879 193.939 38.126 194.394 38.126C194.761 38.126 195.187 37.8635 195.735 37.2835L196.466 33.5733H197.654L196.585 39.0066ZM199.322 33.5764H200.291L200.193 34.6264H200.237C200.668 33.9534 201.265 33.4436 201.916 33.4436C202.103 33.4349 202.29 33.4699 202.461 33.5459L202.063 34.5867C201.904 34.5179 201.731 34.4876 201.558 34.4982C201.048 34.4982 200.526 34.9011 200.079 35.7283L199.436 39.0142H198.25L199.322 33.5764ZM204.053 40.1131C204.053 39.4446 204.663 39.002 205.274 38.7273V38.6922C205.168 38.6038 205.083 38.4926 205.026 38.3668C204.969 38.241 204.941 38.1039 204.944 37.9657C204.944 37.5628 205.227 37.1904 205.648 36.934V36.8898C205.468 36.7414 205.323 36.555 205.223 36.3438C205.124 36.1327 205.072 35.9022 205.072 35.6688C205.072 34.3899 206.09 33.4375 207.362 33.4375C207.605 33.4325 207.847 33.4777 208.071 33.5703H210.007L209.833 34.4692H208.89C209.012 34.669 209.076 34.8989 209.076 35.1331C209.076 36.3999 208.111 37.2851 206.765 37.2851C206.583 37.2881 206.402 37.2613 206.229 37.2057C206.143 37.2622 206.071 37.3374 206.018 37.4257C205.966 37.5139 205.933 37.613 205.924 37.7154C205.924 38.0375 206.103 38.1642 206.89 38.2527C208.387 38.4389 208.847 38.8113 208.847 39.5133C208.847 40.7816 207.473 41.4119 206.115 41.4119C205.257 41.4104 204.053 41.1494 204.053 40.1131ZM207.682 39.8079C207.682 39.4004 207.24 39.2416 206.524 39.1577C206.35 39.1348 206.119 39.0906 205.872 39.0326C205.515 39.2172 205.08 39.5286 205.08 39.9055C205.08 40.4183 205.538 40.6488 206.24 40.6488C207.067 40.6442 207.682 40.2917 207.682 39.8033V39.8079ZM208.059 35.1545C208.059 34.6096 207.78 34.2723 207.328 34.2723C206.652 34.2723 206.168 34.9637 206.168 35.6551C206.168 36.1999 206.448 36.5357 206.899 36.5357C207.577 36.5311 208.059 35.8397 208.059 35.1499V35.1545ZM210.023 36.9249C210.023 34.8492 211.525 33.436 213.018 33.436C214.239 33.436 215.045 34.2952 215.045 35.6505C215.045 37.7261 213.544 39.1394 212.052 39.1394C210.829 39.1394 210.023 38.2801 210.023 36.9249ZM213.839 35.6902C213.839 34.8706 213.508 34.4021 212.882 34.4021C212.02 34.4021 211.218 35.4948 211.218 36.8852C211.218 37.7048 211.55 38.1733 212.174 38.1733C213.044 38.1733 213.845 37.0867 213.845 35.6902H213.839ZM219.112 35.6185C219.145 35.4992 219.161 35.3759 219.159 35.2522C219.159 34.6051 218.854 34.3746 218.305 34.3746C217.836 34.3746 217.407 34.5425 216.884 34.8325L216.513 33.9961C217.141 33.6567 217.84 33.4671 218.553 33.4421C219.674 33.4421 220.333 33.964 220.333 35.1423C220.33 35.399 220.301 35.6548 220.244 35.9054L219.634 39.0097H218.671L218.686 38.416H218.651C218.227 38.8143 217.583 39.1424 217 39.1424C216.26 39.1424 215.64 38.6419 215.64 37.8009C215.635 36.2305 217.114 35.6719 219.112 35.6185ZM216.795 37.5582C216.795 37.9963 217.1 38.2145 217.526 38.2145C217.915 38.2145 218.289 37.9963 218.717 37.6208L218.975 36.3724C217.552 36.4029 216.795 36.8364 216.795 37.5582ZM222.778 31.1864H223.965L222.398 39.0066H221.211L222.778 31.1864ZM225.044 12.1089L226.305 7.70731H210.098L207.487 12.1089H225.044Z" fill="#333333"/>
        <path d="M223.202 18.5448L224.574 13.7495H208.368L204.969 25.6172H221.177L222.488 21.0417H213.369L214.083 18.5448H223.202Z" fill="#333333"/>
        <path d="M204.841 12.1089L207.446 7.71341H194.201C192.957 7.71335 191.746 8.11858 190.752 8.86781C189.758 9.61705 189.035 10.6696 188.692 11.8662L188.622 12.1134L204.841 12.1089Z" fill="#333333"/>
        <path d="M188.153 13.7495L186.389 19.9291C186.199 20.5933 186.167 21.2923 186.293 21.9713C186.42 22.6502 186.702 23.2905 187.118 23.8418C187.534 24.3931 188.072 24.8404 188.69 25.1485C189.309 25.4566 189.99 25.617 190.68 25.6172H200.973L202.282 21.0386H192.474L194.561 13.7465L188.153 13.7495ZM169.732 13.7495L159.523 25.6172H167.311L173.395 18.5448H177.303L178.962 25.6172H185.897L183.112 13.7495H169.732Z" fill="#333333"/>
        <path d="M182.727 12.1089L181.696 7.71188L181.699 7.70731H174.929L171.144 12.1089H182.727Z" fill="#333333"/>
        <path d="M162.137 18.5448L163.511 13.7495H147.303L145.929 18.5448L143.904 25.6172H160.112L161.423 21.0417H152.304L153.018 18.5448H162.137Z" fill="#333333"/>
        <path d="M163.98 12.1089L165.24 7.70731H149.034L146.425 12.1089H163.98Z" fill="#333333"/>
        <path d="M125.394 13.7495L121.997 25.6172H128.101L130.127 18.5448H138.426C139.895 18.5441 141.326 18.0803 142.517 17.2195C143.707 16.3586 144.595 15.1444 145.056 13.7495H125.394Z" fill="#333333"/>
        <path d="M145.518 12.1089C145.622 11.5738 145.606 11.0224 145.472 10.4942C145.338 9.96592 145.088 9.4739 144.742 9.05331C144.395 8.63272 143.96 8.29395 143.467 8.06126C142.974 7.82856 142.436 7.7077 141.891 7.70731H127.132L124.516 12.1089H145.518ZM107.663 12.1089C107.766 11.5738 107.75 11.0224 107.616 10.4942C107.482 9.96592 107.232 9.4739 106.886 9.05331C106.539 8.63272 106.104 8.29395 105.611 8.06126C105.118 7.82856 104.58 7.7077 104.035 7.70731H89.1879L86.5796 12.1089H107.663Z" fill="#333333"/>
        <path d="M107.197 13.7495H87.4588L86.6881 16.4433L84.0615 25.6172H90.1663L92.1916 18.5448H99.1144L97.0892 25.6172H103.194L104.555 20.8647C104.711 20.3251 104.725 19.7544 104.595 19.208C104.465 18.6616 104.196 18.1581 103.814 17.7466C105.417 16.9038 106.631 15.4705 107.197 13.7495Z" fill="#333333"/>
        <path d="M84.1289 12.1089L85.3819 7.73019H78.894L77.641 12.1089H84.1289ZM71.5988 12.1089L70.6083 7.73019H63.8396L59.9844 12.1089H71.5988Z" fill="#333333"/>
        <path d="M77.1708 13.7495L74.268 23.8896L71.9711 13.7495H58.539L54.6548 18.1587H66.1883L68.122 25.6172H80.2598L83.6587 13.7495H77.1708Z" fill="#333333"/>
        <path d="M46.3841 18.8882C46.3602 18.538 46.3133 18.1898 46.2437 17.8458C46.1934 17.6077 46.1461 17.4627 46.0911 17.1926C44.7084 10.5933 40.3816 7.14866 40.3816 7.14866C40.2951 7.0712 40.2033 6.99981 40.1069 6.93499C39.4588 6.35809 38.7883 5.80611 38.0954 5.27906C34.7972 2.79288 31.1817 1.04844 27.0884 0.338754C24.7009 -0.0735817 22.2636 -0.109629 19.8649 0.23192C17.6365 0.560181 15.4564 1.15826 13.3724 2.013C10.2712 3.25227 7.64004 5.11271 5.54152 7.71946L5.38127 7.91786C5.36512 7.94194 5.34672 7.96442 5.32632 7.98501C5.04163 8.32645 4.77568 8.68309 4.52965 9.05335C4.51905 9.06652 4.50467 9.07611 4.48844 9.08083C3.87796 9.97365 3.24917 11.0084 3.18201 11.1198C1.5512 13.901 0.512045 16.9888 0.129615 20.19C-0.0766399 21.9579 -0.0365766 23.7459 0.248659 25.5027C0.608975 27.701 1.35232 29.8189 2.44486 31.7602C2.56543 31.9753 2.68447 32.1921 2.82031 32.3981C2.93471 32.6178 3.07961 32.8203 3.25069 32.9994C1.83133 30.1927 0.97513 27.2411 0.927818 24.0803L0.946132 24.0696V23.8178C0.946132 23.6652 0.935449 23.5049 0.93087 23.3493C0.984631 21.7215 1.24463 20.1071 1.70465 18.5448C2.26873 16.6646 3.09051 14.8716 4.14657 13.2168C4.14657 13.2168 4.21983 13.0963 4.35871 12.8887C4.92339 12.0375 5.54013 11.2219 6.20542 10.4468C6.22373 10.4239 6.24357 10.4025 6.26188 10.3827C6.56712 10.0194 6.91052 9.64705 7.2707 9.27923C7.27704 9.27137 7.28421 9.26421 7.29207 9.25787C7.579 8.96636 7.88118 8.67791 8.19253 8.40167H8.20016C9.23832 7.42633 10.3777 6.56473 11.599 5.83155C14.2637 4.26414 17.1574 3.38963 20.2159 2.99587C22.4733 2.7052 24.7622 2.76905 26.9999 3.18512C29.6686 3.68492 32.2172 4.68987 34.5088 6.14594C36.6293 7.49383 38.5458 9.13848 40.2 11.0298C40.2318 11.0662 40.2671 11.0994 40.3053 11.129C43.3424 14.8392 44.1788 20.3823 44.2139 20.625C44.2688 21.5117 44.2963 22.4015 44.2841 23.2928L44.2612 24.0727C44.1896 26.1533 43.8637 28.2173 43.2905 30.2187C42.0818 34.3374 39.7508 37.6711 36.2975 40.2199C33.6633 42.1582 30.7101 43.4249 27.589 44.3406C26.7664 44.5802 25.9331 44.7817 25.083 45.0045C25.1622 45.0107 25.2418 45.0107 25.3211 45.0045C25.9453 44.8977 26.5695 44.7939 27.1907 44.6626C29.9285 44.1008 32.5697 43.1424 35.0307 41.8178C37.6512 40.3954 39.9405 38.567 41.8055 36.2289C44.7679 32.5126 46.14 28.2102 46.4315 23.5233C46.538 21.9794 46.5221 20.4295 46.3841 18.8882Z" fill="#333333"/>
        <path d="M56.3077 6.93656C56.2787 6.61911 56.0955 6.4787 55.7796 6.51686C55.2714 6.58706 54.7631 6.66948 54.2534 6.74121C52.1324 7.04721 50.0397 7.52496 47.996 8.16973C46.9267 8.50854 45.8757 8.90283 44.8474 9.35101C44.7864 9.37696 44.6948 9.46853 44.6215 9.44869C44.3713 9.56163 44.1438 9.66846 43.9882 9.74324C43.971 9.75362 43.9532 9.7628 43.9348 9.77072C43.4616 9.98591 43.0023 10.2286 42.5307 10.4575C40.4047 11.4617 38.6511 12.933 37.1676 14.7415C35.5422 16.7256 34.2098 18.9004 32.9873 21.1516C32.5981 21.8674 32.2242 22.5908 31.8412 23.3081C31.3436 24.3764 30.0601 23.8591 29.5045 23.5737C29.4148 23.5295 29.3286 23.4785 29.2466 23.421C29.1276 23.3432 29.0116 23.2593 28.8895 23.1921C27.042 22.1678 25.0262 21.4825 22.9373 21.1684C20.5151 20.8316 18.0491 21.0089 15.7001 21.6888C14.4379 22.0459 13.1849 22.4366 11.9487 22.8747C11.6877 22.9723 10.8513 23.2852 9.11298 23.972L8.89931 24.0621L8.8169 24.0926L8.45366 24.2452C8.42772 24.2879 8.37583 24.3093 8.28731 24.32C8.14232 24.3856 7.99886 24.4512 7.85845 24.5184C7.44332 24.7214 7.0343 24.9274 6.63749 25.1411C5.6714 25.6661 5.00751 26.1011 4.97088 26.1255C4.25231 26.5981 3.58707 27.1471 2.98682 27.7631C3.78349 27.6486 4.52523 27.5372 5.27612 27.435C8.3102 27.0198 11.3519 26.7176 14.4211 26.8138C16.1381 26.8687 17.8398 27.0473 19.482 27.586C20.6205 27.9584 21.6568 28.5018 22.4901 29.387C22.6427 29.5396 22.6275 29.6067 22.4123 29.6617C21.9422 29.7807 21.4798 29.9288 21.0097 30.0463C19.5705 30.4049 18.1099 30.669 16.686 31.0963C16.0755 31.281 15.4543 31.4779 14.9354 31.8594C14.3051 32.3295 14.2853 32.4378 14.8088 33.0529C15.3322 33.668 16.0435 33.9579 16.7715 34.2159C18.5693 34.8553 20.4511 35.1011 22.3299 35.3575C22.5039 35.3803 22.5222 35.33 22.4672 35.185C22.3462 34.8676 22.2786 34.5324 22.2673 34.193C22.252 33.5443 22.5466 33.1078 23.1571 32.8957C23.6449 32.737 24.1493 32.6346 24.6604 32.5905C25.7547 32.4745 26.8566 32.4928 27.9493 32.3615C29.4038 32.1875 30.814 31.8548 32.1372 31.2062C33.6253 30.4782 34.8432 29.4022 35.9741 28.2194C36.9692 27.1816 37.9566 26.1362 38.9365 25.0831C39.0891 24.9198 39.2066 24.8633 39.4172 24.9976C39.6706 25.1579 39.9544 25.2693 40.2215 25.4097C40.3497 25.4768 40.4153 25.4875 40.4169 25.3044C40.4331 24.8373 40.4008 24.3698 40.3207 23.9094C40.2063 23.331 40.0155 22.7877 39.4996 22.4366C39.2898 22.2742 39.0441 22.1643 38.7831 22.1162C38.522 22.0682 38.2533 22.0833 37.9994 22.1604C38.0284 22.0627 38.0436 21.994 38.068 21.9269C38.4473 20.828 38.9238 19.7651 39.492 18.7509C40.0773 17.6896 40.857 16.7478 41.7904 15.9747C41.8508 15.9204 41.9216 15.8789 41.9984 15.8526C42.0753 15.8264 42.1566 15.816 42.2376 15.8221C42.4535 15.8414 42.6704 15.7991 42.8632 15.7003C43.056 15.6014 43.217 15.45 43.3273 15.2635C43.4601 15.0636 43.5135 14.8301 43.6326 14.6042C43.9867 15.2574 44.5971 15.3841 45.232 15.4009C45.9661 15.4207 46.3935 14.998 46.5797 14.3096C47.2024 14.6988 47.4847 14.6637 47.7716 14.125C47.8937 13.8991 48.0097 13.7694 48.2829 13.8075C48.413 13.8101 48.5393 13.7638 48.637 13.6778C48.8562 13.5084 49.0121 13.2703 49.0796 13.0017C49.1238 12.8582 49.165 12.8384 49.3024 12.9132C49.424 12.9896 49.5647 13.0301 49.7084 13.0301C49.852 13.0301 49.9927 12.9896 50.1143 12.9132C50.3294 12.7705 50.5048 12.5757 50.6241 12.3469C50.6328 12.3198 50.647 12.2946 50.6657 12.273C50.6844 12.2515 50.7072 12.2339 50.7329 12.2213C50.7585 12.2088 50.7864 12.2015 50.815 12.2001C50.8435 12.1986 50.872 12.2028 50.8988 12.2126C51.4681 12.3347 51.7764 12.1379 51.9061 11.5762C51.9157 11.5148 51.9428 11.4575 51.9843 11.4112C52.0257 11.3649 52.0797 11.3316 52.1396 11.3152C52.6967 11.1016 52.9119 10.7765 52.9027 10.1813C52.9027 10.0531 52.8859 9.92486 52.8707 9.79819C52.8615 9.72951 52.8493 9.66388 52.9454 9.66083C53.0266 9.66954 53.1088 9.66122 53.1866 9.63641C53.1912 9.61015 53.1973 9.58416 53.2049 9.55857C53.2186 9.57689 53.2308 9.59368 53.2415 9.61047C53.3 9.57581 53.3502 9.52897 53.389 9.47313C53.4277 9.4173 53.4539 9.35379 53.4659 9.28691C53.4664 9.27827 53.4664 9.26961 53.4659 9.26097L53.475 9.2106C53.4955 8.98482 53.4626 8.7574 53.3789 8.5467C53.8154 8.61386 54.2015 8.68254 54.5907 8.72832C54.7682 8.75841 54.9503 8.74557 55.1218 8.69087C55.2934 8.63618 55.4493 8.54121 55.5766 8.41392C55.8528 8.14555 56.0768 7.82835 56.2375 7.47836C56.308 7.30705 56.3322 7.1202 56.3077 6.93656Z" fill="#333333"/>
    </g>
    <defs>
        <clipPath id="clip0_15213_408">
            <rect width="226.305" height="45" fill="white"/>
        </clipPath>
    </defs>
</svg>
