<svg width="57" height="56" viewBox="0 0 57 56" fill="none" xmlns="http://www.w3.org/2000/svg">
<path d="M28.2587 56C43.7227 56 56.2587 43.464 56.2587 28C56.2587 12.536 43.7227 0 28.2587 0C12.7948 0 0.258728 12.536 0.258728 28C0.258728 43.464 12.7948 56 28.2587 56Z" fill="#F9EDF2"/>
<path d="M43.4907 20.7647V21.9519C43.4907 22.9935 42.7067 23.8447 41.7435 23.8447H41.5867C41.5867 22.7359 40.7243 21.8287 39.6827 21.8287C38.6411 21.8287 37.7787 22.7359 37.7787 23.8447H33.9707C33.9707 22.7359 33.1083 21.8287 32.0667 21.8287C31.0251 21.8287 30.1627 22.7359 30.1627 23.8447H26.3547C26.3547 22.7359 25.4923 21.8287 24.4507 21.8287C23.4091 21.8287 22.5467 22.7359 22.5467 23.8447H18.7387C18.7387 22.7359 17.8763 21.8287 16.8347 21.8287C15.7931 21.8287 14.9307 22.7359 14.9307 23.8447H14.7739C13.7995 23.8447 13.0267 23.0047 13.0267 21.9519V20.7647C13.0267 20.1151 13.3291 19.5215 13.8443 19.1743L27.3291 10.0351C27.9003 9.65431 28.6283 9.65431 29.1995 10.0351L42.6843 19.1743C43.1995 19.5215 43.5019 20.1151 43.5019 20.7647H43.4907Z" fill="#F1ACC8"/>
<path d="M45.3947 43.9708H11.1227C11.1227 42.7612 11.9627 41.8205 13.0267 41.5965V40.3868C13.0267 39.1996 13.8443 38.1916 14.9307 37.9676C14.9531 39.054 15.8043 39.9388 16.8347 39.9388C17.8651 39.9388 18.7387 39.0317 18.7387 37.9229H22.5467C22.5467 39.0317 23.4091 39.9388 24.4507 39.9388C25.4923 39.9388 26.3547 39.0317 26.3547 37.9229H30.1627C30.1627 39.0317 31.0251 39.9388 32.0667 39.9388C33.1083 39.9388 33.9707 39.0317 33.9707 37.9229H37.7787C37.7787 39.0317 38.6411 39.9388 39.6827 39.9388C40.7243 39.9388 41.5643 39.054 41.5867 37.9676C42.6731 38.1916 43.4907 39.1996 43.4907 40.3868V41.5965C44.5547 41.8205 45.3947 42.7612 45.3947 43.9708Z" fill="#F1ACC8"/>
<path d="M28.2587 17.8084C29.3103 17.8084 30.1627 16.9058 30.1627 15.7924C30.1627 14.679 29.3103 13.7764 28.2587 13.7764C27.2072 13.7764 26.3547 14.679 26.3547 15.7924C26.3547 16.9058 27.2072 17.8084 28.2587 17.8084Z" fill="white"/>
<path d="M18.7388 37.9343H15.3452C15.1884 37.9343 15.054 37.9567 14.9308 37.9791V37.9343C14.606 33.0399 14.5724 28.3135 14.9308 23.8447H18.7388C19.0636 28.3135 19.0412 33.0399 18.7388 37.9343Z" fill="#2D375E"/>
<path d="M26.3548 37.9343H22.5468C22.222 33.0399 22.1884 28.3135 22.5468 23.8447H26.3548C26.6796 28.3135 26.6572 33.0399 26.3548 37.9343Z" fill="#2D375E"/>
<path d="M33.9707 37.9343H30.1627C29.8379 33.0399 29.8043 28.3135 30.1627 23.8447H33.9707C34.2955 28.3135 34.2731 33.0399 33.9707 37.9343Z" fill="#2D375E"/>
<path d="M16.8348 21.8291C15.782 21.8291 14.9308 22.7363 14.9308 23.8451H18.7388C18.7388 22.7363 17.8764 21.8291 16.8348 21.8291Z" fill="#FF5805"/>
<path d="M14.9308 37.9686C14.9532 39.055 15.8044 39.9398 16.8348 39.9398C17.8652 39.9398 18.7388 39.0326 18.7388 37.9238H15.3452C15.1884 37.9238 15.054 37.9462 14.9308 37.9686Z" fill="#FF5805"/>
<path d="M24.4507 21.8291C23.3979 21.8291 22.5468 22.7363 22.5468 23.8451H26.3547C26.3547 22.7363 25.4923 21.8291 24.4507 21.8291Z" fill="#FF5805"/>
<path d="M24.4507 39.9398C25.5035 39.9398 26.3547 39.0326 26.3547 37.9238H22.5468C22.5468 39.0326 23.4091 39.9398 24.4507 39.9398Z" fill="#FF5805"/>
<path d="M32.0667 21.8291C31.0139 21.8291 30.1627 22.7363 30.1627 23.8451H33.9707C33.9707 22.7363 33.1083 21.8291 32.0667 21.8291Z" fill="#FF5805"/>
<path d="M32.0667 39.9398C33.1195 39.9398 33.9707 39.0326 33.9707 37.9238H30.1627C30.1627 39.0326 31.0251 39.9398 32.0667 39.9398Z" fill="#FF5805"/>
<path d="M39.6828 21.8291C38.63 21.8291 37.7787 22.7363 37.7787 23.8451H41.5868C41.5868 22.7363 40.7244 21.8291 39.6828 21.8291Z" fill="#FF5805"/>
<path d="M37.7787 37.9346C37.7787 39.0434 38.6412 39.9506 39.6828 39.9506C40.7244 39.9506 41.5644 39.0658 41.5868 37.9794C41.4524 37.957 41.318 37.9346 41.1724 37.9346H37.7787Z" fill="#FF5805"/>
<path d="M41.5867 37.9343V37.9791C41.4523 37.9567 41.3179 37.9343 41.1723 37.9343H37.7787C37.4539 33.0399 37.4203 28.3135 37.7787 23.8447H41.5867C41.9115 28.3135 41.8891 33.0399 41.5867 37.9343Z" fill="#2D375E"/>
</svg>
