<svg width="57" height="56" viewBox="0 0 57 56" fill="none" xmlns="http://www.w3.org/2000/svg">
<path d="M28.7 56C44.164 56 56.7 43.464 56.7 28C56.7 12.536 44.164 0 28.7 0C13.236 0 0.700012 12.536 0.700012 28C0.700012 43.464 13.236 56 28.7 56Z" fill="#F9EDF2"/>
<path d="M28.2072 11.7378C23.3464 11.7378 19.404 15.5234 19.404 20.1714V24.9426H22.9208V20.1714C22.9208 17.3938 25.2952 15.109 28.2072 15.109C31.1192 15.109 33.4936 17.3938 33.4936 20.1714V24.9426H37.0104V20.1714C37.0104 15.5234 33.068 11.7378 28.2072 11.7378Z" fill="#F1ACC8"/>
<path d="M41.412 29.344V39.144C41.412 41.5632 39.4296 43.5456 37.0104 43.5456H19.404C16.9848 43.5456 15.0024 41.5632 15.0024 39.144V29.344C15.0024 26.9248 16.9848 24.9424 19.404 24.9424H37.0104C39.4296 24.9424 41.412 26.9248 41.412 29.344Z" fill="#2D375E"/>
<path d="M22.932 24.9424V26.6672C22.932 27.6416 22.148 28.4256 21.1736 28.4256C20.1992 28.4256 19.4152 27.6416 19.4152 26.6672V24.9424H22.932Z" fill="#FF5805"/>
<path d="M37.0104 24.9424V26.488C37.0104 27.4624 36.2264 28.2464 35.252 28.2464C34.2776 28.2464 33.4936 27.4624 33.4936 26.488V24.9424H37.0104Z" fill="#FF5805"/>
<path d="M27.86 35.5486C28.7693 35.5486 29.5064 34.8115 29.5064 33.9022C29.5064 32.993 28.7693 32.2559 27.86 32.2559C26.9507 32.2559 26.2136 32.993 26.2136 33.9022C26.2136 34.8115 26.9507 35.5486 27.86 35.5486Z" fill="white"/>
</svg>
